<svg width="50" height="40" viewBox="0 0 50 40" fill="none" xmlns="http://www.w3.org/2000/svg">
<path d="M17.6862 0.672111C16.8181 1.31683 16.5684 1.61861 16.5684 2.0027C16.5684 2.20846 16.4732 2.42794 16.3305 2.53768C16.0808 2.71601 16.0095 3.23727 16.2116 3.47047C16.3068 3.58021 16.1997 3.7311 15.8786 3.96429C14.737 4.84221 13.5716 6.50202 13.1078 7.91491C12.977 8.31272 12.8343 9.14948 12.7986 9.76676C12.4656 15.1851 16.4495 19.2043 22.9307 20C26.8551 20.4801 31.1243 19.3827 33.6336 17.2428C34.5612 16.4471 35.6671 14.9794 36.119 13.9369C36.678 12.6611 36.8207 11.7284 36.7612 9.90394C36.7136 8.50476 36.678 8.32643 36.2736 7.32506C35.7742 6.14536 34.7633 4.80106 33.812 4.06032C33.3006 3.64879 33.2292 3.55277 33.2887 3.23727C33.3482 2.89433 33.1103 2.42794 32.8725 2.42794C32.8249 2.42794 32.8011 2.24962 32.8368 2.03014C32.8725 1.6872 32.8011 1.56374 32.2422 1.09735C30.9816 0.013676 30.8627 -4.23069e-05 30.0422 0.94646L29.4238 1.64605L28.4962 1.42657C26.1534 0.850438 23.6442 0.850438 21.0517 1.42657L20.0052 1.65977L19.3868 0.94646C19.0419 0.548655 18.6495 0.233154 18.5187 0.233154C18.3879 0.233154 18.0073 0.425198 17.6862 0.672111V0.672111ZM21.6463 4.96566C21.9793 5.72012 22.4669 6.92726 22.7285 7.64056C22.9901 8.35387 23.4539 9.61587 23.7631 10.4389C24.6312 12.812 24.6075 13.5802 23.6204 13.9643C22.8712 14.2661 17.7576 14.2249 16.3068 13.9094C15.4148 13.7037 15.1057 13.6899 14.9035 13.8134C14.6894 13.9369 14.6062 13.9231 14.4159 13.7311C13.8332 13.1275 13.0245 10.4389 13.3099 10.1097C13.3932 10.0137 13.9759 9.95881 14.7013 9.95881C16.5089 9.95881 18.483 10.5075 20.9923 11.6872C21.1944 11.7832 21.1944 11.7558 21.016 11.262C20.8733 10.8779 20.7901 10.0274 20.7306 8.32643C20.6593 6.32369 20.5998 5.80243 20.3739 5.17143C20.029 4.15634 19.9814 4.11518 19.2679 4.03288C18.923 3.99173 18.3284 3.84084 17.936 3.68994C17.5435 3.52534 17.0797 3.37444 16.9014 3.31957C16.7111 3.27842 16.5684 3.15496 16.5684 3.05894C16.5684 2.90805 16.6635 2.89433 17.0797 3.01779C17.3533 3.1001 17.7814 3.15496 18.043 3.14125C18.376 3.12753 18.59 3.20983 18.8517 3.45675C19.1609 3.75853 19.4225 3.89571 19.4225 3.74481C19.4225 3.71738 19.2084 3.44303 18.9349 3.12753C18.5187 2.66114 18.4592 2.51025 18.5306 2.19475C18.6019 1.86553 18.59 1.85181 18.4117 2.01642C18.2333 2.18103 18.1857 2.18103 18.0549 1.97527C17.9122 1.75579 17.9003 1.76951 17.8527 2.07129C17.8052 2.33192 17.8527 2.42794 18.0311 2.45538C18.3998 2.52396 18.3998 2.79831 18.043 2.89433C17.7814 2.97664 17.6506 2.90805 17.3295 2.5514C17.1035 2.30449 16.9251 2.05757 16.9251 1.98898C16.9251 1.87925 18.0787 0.864155 18.3522 0.740698C18.4711 0.699546 18.9468 1.15222 19.7911 2.12616C20.8614 3.38816 21.1231 3.78597 21.6463 4.96566V4.96566ZM32.1827 1.61861L32.5633 2.0027L32.1352 2.49653C31.7784 2.90805 31.6595 2.97664 31.386 2.89433C31.0292 2.79831 31.0292 2.52396 31.3979 2.45538C31.5762 2.42794 31.6238 2.33192 31.5762 2.07129C31.5287 1.76951 31.5168 1.75579 31.3741 1.97527C31.2433 2.18103 31.1957 2.18103 31.0173 2.01642C30.8389 1.85181 30.827 1.86553 30.8984 2.16731C30.9578 2.42794 30.8746 2.6337 30.4941 3.1001C30.2205 3.44303 30.0065 3.7311 30.0065 3.75853C30.0065 3.89571 30.2681 3.75853 30.5892 3.44303C30.8746 3.16868 31.0292 3.11381 31.3027 3.1824C31.5049 3.22355 31.7546 3.20983 31.8735 3.14125C31.9925 3.07266 32.266 2.97664 32.48 2.93549C32.7654 2.8669 32.8606 2.89433 32.8606 3.04523C32.8606 3.15497 32.7179 3.27842 32.5395 3.31957C32.3492 3.36073 31.8022 3.53905 31.3146 3.7311C30.8151 3.92314 30.2205 4.07403 29.9946 4.07403C29.4475 4.07403 29.2573 4.32095 28.9362 5.51436C28.734 6.28254 28.6746 6.8861 28.6508 8.53219C28.627 9.95881 28.5556 10.7681 28.4248 11.1797C28.2583 11.7284 28.2583 11.7695 28.4367 11.6735C30.9341 10.4664 34.2995 9.6433 35.7742 9.89022C36.2855 9.98624 36.3093 10.0137 36.3093 10.4252C36.3093 11.4129 35.8098 12.8669 35.1558 13.7997C34.9298 14.1152 34.9179 14.1152 34.5968 13.882C34.2995 13.6488 34.2401 13.6488 33.3006 13.882C32.0876 14.1701 28.5319 14.3072 26.8075 14.1152C25.654 13.9917 25.535 13.9506 25.2734 13.5939C24.8572 13.0452 24.9523 12.3319 25.7134 10.2469C26.6053 7.83261 27.6994 5.03425 28.0562 4.27979C28.3773 3.63507 29.4238 2.24962 30.3632 1.23453L30.8984 0.658394L31.3503 0.960178C31.6 1.11107 31.9687 1.41285 32.1827 1.61861V1.61861ZM27.8659 1.79694C28.401 1.90668 28.8767 2.03014 28.9124 2.08501C28.9481 2.12616 28.8173 2.35936 28.6151 2.60627C28.0918 3.25099 27.8064 3.78597 27.2237 5.13027C26.5578 6.70778 24.7739 11.5226 24.7739 11.7695C24.7739 11.9478 24.0485 10.1097 23.3826 8.18926C22.455 5.5418 21.5155 3.51162 20.7544 2.5514C20.4214 2.12616 20.4452 2.09872 21.3847 1.87924C23.1923 1.44029 25.9275 1.41285 27.8659 1.79694V1.79694ZM18.2808 4.29351C18.7327 4.47184 19.256 4.62273 19.4344 4.62273C19.7198 4.62273 19.7911 4.71875 20.0171 5.40462C20.2193 6.02191 20.2906 6.58432 20.3263 7.84632C20.362 8.75167 20.3976 9.80792 20.4095 10.192L20.4452 10.9053L19.6722 10.5624C18.0192 9.84907 16.497 9.51985 14.8202 9.50613L13.2505 9.49241L13.3099 9.14948C13.6786 7.2016 14.5348 5.76128 16.1403 4.40325C16.9133 3.7311 16.8657 3.7311 18.2808 4.29351V4.29351ZM33.2649 4.21121C34.0379 4.77362 34.8941 5.80243 35.4769 6.83123C35.9169 7.61313 36.0239 7.91491 36.2617 9.03974L36.3331 9.42383H35.0725C33.5979 9.42383 32.0281 9.75304 30.2443 10.4115L28.9956 10.8779L29.0313 8.88885C29.067 7.037 29.1978 5.95332 29.5189 4.9931C29.614 4.70503 29.7211 4.62273 29.9827 4.62273C30.173 4.62273 30.5654 4.52671 30.8508 4.40325C31.4454 4.15634 32.3849 3.82712 32.5752 3.8134C32.6346 3.79968 32.9557 3.99173 33.2649 4.21121V4.21121ZM25.428 14.3347C25.8205 14.5679 28.9956 14.8148 30.4346 14.7325C31.16 14.6913 32.3254 14.5404 33.0152 14.417C34.0498 14.2249 34.3233 14.2112 34.4422 14.3484C34.7514 14.7188 32.5871 16.4609 30.8389 17.229C26.7005 19.0672 21.6225 18.8477 17.8052 16.6941C16.4019 15.8985 14.8084 14.5541 15.0105 14.3209C15.1057 14.2112 15.3673 14.2112 15.95 14.3347C18.043 14.7462 19.5057 14.8285 21.6344 14.6639C23.7037 14.4993 24.1793 14.3758 24.5361 13.882C24.6788 13.6899 24.7145 13.6899 24.9404 13.9231C25.0831 14.074 25.2972 14.2524 25.428 14.3347ZM37.3082 22.8669C36.8444 23.0864 36.6661 23.5391 36.6661 24.5816C36.6542 25.336 36.6304 25.4869 36.5353 25.2949C36.3688 24.9657 35.7147 24.6502 35.2152 24.6502C34.5731 24.6502 33.8476 25.1577 33.4909 25.8436C33.0746 26.6666 32.9676 28.3264 33.2649 29.2455C33.6693 30.4664 34.5017 30.9327 36.0596 30.7956C36.5947 30.7544 36.8682 30.6447 37.1893 30.3566C37.998 29.6433 38.0337 29.4787 38.0337 25.9533C38.0337 22.8943 38.0218 22.7983 37.7958 22.7709C37.665 22.7572 37.4391 22.7983 37.3082 22.8669V22.8669ZM36.2498 26.3374C36.8326 26.9135 36.8682 28.5596 36.3093 29.2592C35.9288 29.7119 35.2152 29.7119 34.8347 29.2729C34.2995 28.6557 34.2995 27.037 34.8228 26.3786C35.1914 25.9122 35.8098 25.8984 36.2498 26.3374ZM6.80496 25.0343C5.9844 25.6378 5.86548 26.1042 5.86548 28.7105V30.8367L6.4363 30.7956L6.99523 30.7544L7.05469 28.7654C7.09037 27.668 7.16172 26.6803 7.20929 26.5569C7.31632 26.3237 7.792 26.0219 8.06552 26.0219C8.16066 26.0219 8.37472 26.1728 8.5531 26.3511C8.88608 26.6666 8.88608 26.6803 8.90986 28.7105L8.94554 30.7544H10.0872L10.1466 28.6557C10.2061 26.7489 10.2299 26.5295 10.4439 26.3511C10.8602 25.9945 11.2169 25.967 11.5499 26.2551C11.871 26.5295 11.871 26.5432 11.9305 28.6419L11.9899 30.7544H13.1791L13.2148 28.8614C13.2267 27.8189 13.191 26.7352 13.1197 26.4197C12.9532 25.7201 12.3824 24.9794 11.8472 24.7736C11.2645 24.5541 10.325 24.6913 9.89691 25.048L9.54014 25.3498L9.17149 25.0343C8.89797 24.8148 8.57688 24.7188 8.06552 24.6776C7.43524 24.6364 7.29253 24.6776 6.80496 25.0343V25.0343ZM15.3435 24.8559C14.1067 25.3498 13.5121 27.0096 13.8689 28.93C14.2375 30.9465 17.0084 31.6186 18.2808 30C18.5187 29.6982 18.709 29.3827 18.709 29.3141C18.709 29.0946 17.377 29.1632 17.1154 29.3827C16.9846 29.4924 16.6397 29.5884 16.3543 29.5884C15.9381 29.5884 15.7716 29.5061 15.4862 29.1906C15.2959 28.9712 15.1413 28.6557 15.1413 28.5048C15.1413 28.2304 15.2008 28.2167 16.9965 28.2167H18.8636L18.8041 27.3388C18.6614 25.2812 17.0679 24.1426 15.3435 24.8559V24.8559ZM17.1154 26.31C17.27 26.4883 17.4008 26.7352 17.4008 26.8724C17.4008 27.0919 17.2819 27.1193 16.2711 27.1193C15.6527 27.1193 15.1413 27.0782 15.1413 27.0096C15.1532 26.7626 15.4862 26.2414 15.7478 26.0631C16.1284 25.8161 16.7706 25.9396 17.1154 26.31ZM21.1469 24.8148C20.5879 25.048 20.0409 25.5829 19.7793 26.1454C19.589 26.5843 19.5414 27.0096 19.5176 28.7105L19.482 30.7544H20.7901L20.8495 28.8203C20.9209 26.5432 20.9923 26.3511 21.9198 26.214L22.4788 26.1316L22.455 25.5555C22.4312 25.2537 22.4193 24.9108 22.4074 24.8148C22.3955 24.609 21.6582 24.609 21.1469 24.8148V24.8148ZM24.1793 24.8559C23.002 25.4732 22.4431 26.9821 22.7523 28.7105C22.8712 29.3552 23.002 29.6296 23.3945 30.0823C24.5599 31.4403 26.748 31.0699 27.4378 29.3964C27.7589 28.6282 27.7113 28.5596 26.9145 28.5596C26.4626 28.5596 26.201 28.6145 26.201 28.7105C26.201 28.7928 26.094 29.026 25.9513 29.2318C25.5826 29.7668 24.9048 29.7393 24.4885 29.1632C24.2269 28.8065 24.1793 28.6145 24.1793 27.86C24.1793 27.3388 24.2507 26.8038 24.3577 26.5843C24.6907 25.8161 25.7134 25.7476 26.0702 26.4471C26.2486 26.8175 26.3199 26.845 26.9621 26.845H27.6637L27.5805 26.3923C27.4854 25.8299 27.1643 25.336 26.6767 25.0068C26.1534 24.6502 24.7502 24.5679 24.1793 24.8559V24.8559ZM29.2097 24.9108C28.7102 25.1714 28.4486 25.583 28.294 26.3237C28.2227 26.7078 28.2227 26.7078 28.8411 26.7078C29.4119 26.7078 29.4951 26.6666 29.6735 26.2963C29.8519 25.9396 29.947 25.8847 30.4108 25.8847C30.946 25.8847 31.3146 26.1316 31.3146 26.4883C31.3146 26.8175 30.9935 26.9958 30.1849 27.133C28.6865 27.3799 28.2108 27.7915 28.1275 28.9574C28.1037 29.369 28.1394 29.8216 28.2108 29.9862C28.5437 30.6995 29.5189 31.015 30.72 30.8093C31.6119 30.6447 32.1827 30.2606 32.4444 29.6296C32.6703 29.0809 32.6941 26.1179 32.4681 25.6104C32.0995 24.7325 30.2919 24.3484 29.2097 24.9108V24.9108ZM31.2789 28.5185C31.1957 29.2455 30.7676 29.7256 30.1849 29.7256C29.5308 29.7256 29.2097 29.1358 29.5665 28.5733C29.7211 28.3402 30.6368 27.9698 31.1243 27.9561C31.3146 27.9423 31.3384 28.0109 31.2789 28.5185V28.5185ZM39.7937 24.9382C38.9018 25.4458 38.3785 26.7215 38.4856 28.107C38.6045 29.6022 39.4369 30.6721 40.6499 30.8779C41.3635 31.0013 42.3267 30.727 42.7905 30.2606C44.1343 28.8888 43.8965 25.8436 42.3743 24.9519C41.6726 24.5404 40.4953 24.5267 39.7937 24.9382ZM41.6489 26.0768C42.077 26.3374 42.2554 26.8312 42.2554 27.7503C42.2554 28.9712 41.8629 29.5884 41.0661 29.5884C40.5667 29.5884 40.2694 29.3827 40.0553 28.9026C39.8413 28.4087 39.8294 27.037 40.0434 26.5843C40.3526 25.9396 41.0424 25.7201 41.6489 26.0768V26.0768ZM16.8419 31.9341C16.1046 32.181 16.0808 32.3182 16.1165 36.2551L16.1522 39.8079L16.7824 39.8491L17.4008 39.8902V35.8436C17.4008 33.6076 17.3652 31.7832 17.3176 31.7969C17.2581 31.7969 17.0441 31.8655 16.8419 31.9341V31.9341ZM18.4711 32.5788V33.3744H19.1252L19.7793 33.3882V31.7832H18.4711V32.5788ZM27.081 33.8546C26.4388 34.0329 25.6777 34.8011 25.428 35.5281C25.2853 35.9808 25.2496 36.5157 25.2734 37.9561L25.3091 39.8079L25.9275 39.8491L26.534 39.8902L26.5816 37.9561C26.6172 36.0219 26.6172 36.0082 26.9502 35.679C27.1762 35.4458 27.4259 35.3498 27.7589 35.3498H28.2227V34.5267C28.2227 33.7174 28.2227 33.7037 27.9016 33.7174C27.7113 33.7311 27.3545 33.786 27.081 33.8546V33.8546ZM30.0184 33.9094C28.8886 34.3209 28.2346 35.6653 28.3891 37.2976C28.4962 38.5185 28.8529 39.1495 29.7686 39.6707C30.3276 40 31.5881 40 32.1352 39.6707C32.5871 39.4101 33.2174 38.6694 33.2174 38.4087C33.2174 38.1481 31.8616 38.1618 31.6714 38.4362C31.493 38.6831 30.5892 38.7105 30.2205 38.491C30.0303 38.3676 29.6497 37.6131 29.6497 37.3388C29.6497 37.2976 30.4822 37.2702 31.493 37.2702H33.3363V36.5432C33.3244 35.1989 32.6822 34.1975 31.6119 33.8546C31.0054 33.6625 30.6724 33.6762 30.0184 33.9094V33.9094ZM31.5049 35.24C31.7903 35.3909 32.0757 35.9808 31.9687 36.1865C31.9211 36.2551 31.4216 36.31 30.827 36.31C29.8757 36.31 29.7686 36.2825 29.7686 36.0493C29.7686 35.9122 29.8757 35.6378 30.0065 35.4458C30.3395 34.9657 30.8746 34.8834 31.5049 35.24ZM18.5782 33.978C18.5068 34.0329 18.483 35.1577 18.4949 36.941L18.5306 39.8079L19.1609 39.8491L19.7793 39.8902V33.978L19.5176 33.9231C19.1728 33.8546 18.7327 33.882 18.5782 33.978V33.978ZM20.7663 33.978L20.2787 34.0466L20.9923 36.3786C21.3728 37.6543 21.7771 38.9712 21.8842 39.3004L22.0744 39.8902L22.7404 39.8491L23.4064 39.8079L24.3102 36.8861C24.8096 35.2949 25.1902 33.978 25.1426 33.9643C24.7739 33.9094 23.8583 34.0329 23.7512 34.1563C23.6799 34.2524 23.4182 35.1166 23.1804 36.0905C22.9426 37.0644 22.7285 37.8875 22.7047 37.9149C22.6809 37.9423 22.5263 37.3525 22.348 36.6255C22.1696 35.8847 21.9436 34.9657 21.8485 34.5679C21.7177 34.0466 21.6106 33.8683 21.4679 33.882C21.3609 33.8957 21.0398 33.9369 20.7663 33.978V33.978Z" fill="black"/>
</svg>
